# xmcd
#
# Track frame offsets: 
#        150
#        17197
#        33487
#        46250
#        61282
#        81879
#        100470
#        116320
#        133120
#        151977
#        168715
#        186057
#
# Disc length: 2748 seconds
#
# Revision: 1
# Processed by: cddbd v1.5.2PL0 Copyright (c) Steve Scherf et al.
# Submitted via: ExactAudioCopy v0.99pb4
#
DISCID=9c0aba0c
DTITLE=Sam and Ruby - The Here And The Now (2009)
DYEAR=2009
DGENRE=Country
TTITLE0=What Do I Do Now
TTITLE1=This I Know
TTITLE2=Too Much
TTITLE3=Sarah
TTITLE4=Moire
TTITLE5=The Suitcase Song
TTITLE6=Won't Let You Go
TTITLE7=Need Me Less
TTITLE8=Heaven's My Home
TTITLE9=The Here And The Now
TTITLE10=Chillin'
TTITLE11=Ain't Love Somethin'
EXTD=
EXTT0=
EXTT1=
EXTT2=
EXTT3=
EXTT4=
EXTT5=
EXTT6=
EXTT7=
EXTT8=
EXTT9=
EXTT10=
EXTT11=
PLAYORDER=
